<svg xmlns="http://www.w3.org/2000/svg" xmlns:xlink="http://www.w3.org/1999/xlink" version="1.1" id="Layer_1" x="0px" y="0px" viewBox="0 0 530.5 530.5">
<style type="text/css">
  .st0{fill:#FFF;}
</style>
<g>
  <g>
    <g>
      <g>
        <path class="st0" d="M29,530.5c-16,0-29-13-29-29V29C0,17.3,7.1,6.7,17.9,2.2c10.8-4.5,23.3-2,31.6,6.3l173,173      c11.3,11.3,11.3,29.7,0,41.1c-11.3,11.3-29.7,11.3-41.1,0L58.1,99.1v402.3C58.1,517.5,45.1,530.5,29,530.5z"/>
      </g>
    </g>
    <g>
      <g>
        <path class="st0" d="M501.5,530.5c-7.6,0-15-2.9-20.5-8.5L308,349c-11.3-11.3-11.3-29.7,0-41c11.3-11.3,29.7-11.3,41,0      l123.4,123.4V29c0-16,13-29,29-29s29,13,29,29v472.4c0,11.7-7.1,22.3-17.9,26.8C509,529.8,505.2,530.5,501.5,530.5z"/>
      </g>
    </g>
  </g>
</g>
</svg>
